<svg xmlns="http://www.w3.org/2000/svg" width="34" height="33" viewBox="0 0 34 33"><filter filterUnits="objectBoundingBox" x="-3.13" y="-3.23" width="106.25" height="109.68" id="a"><feGaussianBlur in="SourceAlpha" stdDeviation=".5" result="dsBlurOut1"/><feFlood flood-color="#000" flood-opacity=".25" result="dsFloodOut1"/><feComposite in="dsFloodOut1" in2="dsBlurOut1" operator="in" result="dsShadow1"/><feOffset in="dsShadow1" dy="1" result="dsOffset1"/><feComposite in="dsOffset1" in2="SourceAlpha" operator="out" result="dropShadow1"/><feBlend in="dropShadow1" in2="SourceGraphic" result="sourceGraphic"/></filter><path d="M16.81 30.76c-8.48 0-15.35-6.88-15.35-15.37C1.46 6.9 8.33.02 16.81.02c8.47 0 15.35 6.88 15.35 15.37 0 8.49-6.88 15.37-15.35 15.37zm.16-18.02c0-3.47-3.78-3.19-3.78-3.19H7.6v12.32l5.23-.03s4.49.34 4.53-3.69c0-2.35-1.9-2.92-1.9-2.92s1.51-.54 1.51-2.49zm8.33-2.52h-4.79v1.37h4.79v-1.37zm-2.45 2.1c-4.58 0-4.36 4.82-4.36 4.82s-.25 4.74 4.45 4.74c3.63 0 4.15-2.99 4.15-2.99h-2.33s-.37 1.05-1.76 1.03c-2.27 0-2.19-2.19-2.19-2.19l6.39-.03s.66-5.38-4.35-5.38zm-.01 1.97c1.97 0 2.01 1.87 2.01 1.87l-4 .03s.15-1.9 1.99-1.9zM12.72 19.7l-2.6-.01-.01-3.28s1.58.01 2.65.01c-.01 0 2.01-.14 2.01 1.53 0 1.99-2.05 1.75-2.05 1.75zm.02-5.3l-2.63.01v-2.72l2.27.01s2.14-.28 2.14 1.31c0 1.6-1.78 1.39-1.78 1.39z" fill="#FFF" filter="url(#a)"/></svg>