<svg xmlns="http://www.w3.org/2000/svg" width="33" height="33" viewBox="0 0 33 33"><filter filterUnits="objectBoundingBox" x="-3.23" y="-3.23" width="106.45" height="109.68" id="a"><feGaussianBlur in="SourceAlpha" stdDeviation=".5" result="dsBlurOut1"/><feFlood flood-color="#000" flood-opacity=".25" result="dsFloodOut1"/><feComposite in="dsFloodOut1" in2="dsBlurOut1" operator="in" result="dsShadow1"/><feOffset in="dsShadow1" dy="1" result="dsOffset1"/><feComposite in="dsOffset1" in2="SourceAlpha" operator="out" result="dropShadow1"/><feBlend in="dropShadow1" in2="SourceGraphic" result="sourceGraphic"/></filter><path d="M16.64 31.01c-8.47 0-15.35-6.88-15.35-15.37C1.29 7.15 8.17.26 16.64.26c8.48 0 15.35 6.89 15.35 15.38 0 8.49-6.87 15.37-15.35 15.37zm-.09-27.28C9.95 3.73 4.6 9.1 4.6 15.72c0 6.63 5.35 12 11.95 12s11.95-5.37 11.95-12c0-6.62-5.35-11.99-11.95-11.99zm2.85 11.48c-.27-.69-.55-1.36-.85-2 3.58-1.38 5.63-3.75 5.63-3.75s2.03 2.18 2.21 5.73c0-.01-3.92-.57-6.99.02zm-5.35-9.05s4.79-1.53 8.94 2.08c-2.24 2.27-5.22 3.39-5.22 3.39-1.32-2.98-3.72-5.47-3.72-5.47zM6.9 13.64s.72-4.43 5.2-6.75c2.45 2.96 3.72 5.42 3.72 5.42s-3.65 1.19-8.92 1.33zm10.54 2s-4.67.86-8.4 6.5c-2.67-3.1-2.34-6.79-2.34-6.81 6.73-.21 9.94-1.45 9.94-1.45l.8 1.76zm.68 1.73c1.11 2.58 1.96 7.59 1.96 7.59s-4.83 2.18-9.59-1.43c.01 0 2.7-4.78 7.63-6.16zm8.21-.39c-.64 4.95-4.36 7.01-4.36 7.01-.63-3.63-1.92-7.05-1.92-7.05s2.98-.49 6.28.04z" fill="#FFF" filter="url(#a)"/></svg>