<svg xmlns="http://www.w3.org/2000/svg" width="33" height="33" viewBox="0 0 33 33"><filter filterUnits="objectBoundingBox" x="-3.23" y="-3.23" width="106.45" height="109.68" id="a"><feGaussianBlur in="SourceAlpha" stdDeviation=".5" result="dsBlurOut1"/><feFlood flood-color="#000" flood-opacity=".25" result="dsFloodOut1"/><feComposite in="dsFloodOut1" in2="dsBlurOut1" operator="in" result="dsShadow1"/><feOffset in="dsShadow1" dy="1" result="dsOffset1"/><feComposite in="dsOffset1" in2="SourceAlpha" operator="out" result="dropShadow1"/><feBlend in="dropShadow1" in2="SourceGraphic" result="sourceGraphic"/></filter><path d="M16.35 30.76C7.87 30.76 1 23.88 1 15.39 1 6.9 7.87.02 16.35.02S31.7 6.9 31.7 15.39c0 8.49-6.87 15.37-15.35 15.37zm.37-23.79c-3.47 0-2.68 4.12-2.79 5.62 0 .01-2.12 0-2.12 0v2.79h2.11v9.84h3.51v-9.84h2.35l.46-2.81-2.81.04c0-2-.15-2.81 1.01-2.81l1.81-.01.01-2.82h-3.54z" fill="#FFF" filter="url(#a)"/></svg>