<svg xmlns="http://www.w3.org/2000/svg" width="47" height="48" viewBox="0 0 47 48"><filter filterUnits="objectBoundingBox" x="-2.17" y="-2.17" width="104.35" height="106.52" id="a"><feGaussianBlur in="SourceAlpha" stdDeviation=".5" result="dsBlurOut1"/><feFlood flood-color="#000" flood-opacity=".25" result="dsFloodOut1"/><feComposite in="dsFloodOut1" in2="dsBlurOut1" operator="in" result="dsShadow1"/><feOffset in="dsShadow1" dy="1" result="dsOffset1"/><feComposite in="dsOffset1" in2="SourceAlpha" operator="out" result="dropShadow1"/><feBlend in="dropShadow1" in2="SourceGraphic" result="sourceGraphic"/></filter><path d="M23.47 45.95c-12.42 0-22.5-10.07-22.5-22.5S11.05.95 23.47.95c12.43 0 22.5 10.07 22.5 22.5s-10.07 22.5-22.5 22.5zm-3.75-35.48c-3.44 0-5.01.92-6.06 1.81-.91.91-2.13 2.28-2.09 4.52 0 1.94 1.43 5.3 5.53 5.32.27-.02.44 0 1.08-.05-.22.5-.32.82-.33 1.29 0 .86.3 1.46 1 2.27-1.98.2-4.51.31-6.42 1.58-3.09 1.89-2.76 4.15-2.76 4.12.23 4.98 7.44 4.88 7.42 4.84 5.78-.05 8.7-3.23 8.7-6.42 0-1.71-.69-3.3-2.63-4.7-.85-.78-2.1-1.23-2.1-2.36 0-2.06 3.79-2.51 3.79-6.49-.13-3.04-2.18-4.35-2.44-4.52h2.1l2.17-1.21h-6.96zm17.04 3.01h-3.17v-3.17h-2.12v3.17H28.3v2.11h3.17v3.18h2.12v-3.18h3.17v-2.11zm-18.32 7.73c-2.89-.16-3.83-4.44-3.83-4.44s-1.13-5.05 2.92-5.1c3.16-.34 4.24 4.52 4.24 4.52s1.15 5.02-3.33 5.02zm5.27 9.91c-.09.14.39 3.44-5.02 3.64-5.8-.1-5.92-3.78-5.92-4.12-.03-3.83 5.14-4.02 6.47-4.06 1.15.14 4.43 2.05 4.47 4.54z" fill="#FFF" filter="url(#a)"/></svg>