<?xml version="1.0" encoding="utf-8"?>
<svg xmlns="http://www.w3.org/2000/svg"
	xmlns:xlink="http://www.w3.org/1999/xlink"
	width="47px" height="48px" viewBox="0 0 47 48">
<filter filterUnits="objectBoundingBox" x="-2.17" y="-2.17" width="104.35" height="106.52" id="filter0">
<feGaussianBlur in="SourceAlpha" stdDeviation="0.50" result="dsBlurOut1"/>
<feFlood flood-color="rgb(0,0,0)" flood-opacity="0.25" result="dsFloodOut1"/>
<feComposite in="dsFloodOut1" in2="dsBlurOut1" operator="in" result="dsShadow1"/>
<feOffset in="dsShadow1" dx="-0.00" dy="1.00" result="dsOffset1"/>
<feComposite in="dsOffset1" in2="SourceAlpha" operator="out" result="dropShadow1"/>
<feBlend in="dropShadow1" in2="SourceGraphic" mode="normal" result="sourceGraphic"/>
</filter>
<path fillRule="evenodd" d="M 23.47 45.95C 11.05 45.95 0.97 35.88 0.97 23.45 0.97 11.02 11.05 0.95 23.47 0.95 35.9 0.95 45.97 11.02 45.97 23.45 45.97 35.88 35.9 45.95 23.47 45.95ZM 19.72 10.47C 16.28 10.47 14.71 11.39 13.66 12.28 12.75 13.19 11.53 14.56 11.57 16.8 11.57 18.74 13 22.1 17.1 22.12 17.37 22.1 17.54 22.12 18.18 22.07 17.96 22.57 17.86 22.89 17.85 23.36 17.85 24.22 18.15 24.82 18.85 25.63 16.87 25.83 14.34 25.94 12.43 27.21 9.34 29.1 9.67 31.36 9.67 31.33 9.9 36.31 17.11 36.21 17.09 36.17 22.87 36.12 25.79 32.94 25.79 29.75 25.79 28.04 25.1 26.45 23.16 25.05 22.31 24.27 21.06 23.82 21.06 22.69 21.06 20.63 24.85 20.18 24.85 16.2 24.72 13.16 22.67 11.85 22.41 11.68 22.47 11.68 24.51 11.68 24.51 11.68 24.51 11.68 26.68 10.47 26.68 10.47 26.68 10.47 19.76 10.47 19.72 10.47ZM 36.76 13.48C 36.76 13.48 33.59 13.48 33.59 13.48 33.59 13.48 33.59 10.31 33.59 10.31 33.59 10.31 31.47 10.31 31.47 10.31 31.47 10.31 31.47 13.48 31.47 13.48 31.47 13.48 28.3 13.48 28.3 13.48 28.3 13.48 28.3 15.59 28.3 15.59 28.3 15.59 31.47 15.59 31.47 15.59 31.47 15.59 31.47 18.77 31.47 18.77 31.47 18.77 33.59 18.77 33.59 18.77 33.59 18.77 33.59 15.59 33.59 15.59 33.59 15.59 36.76 15.59 36.76 15.59 36.76 15.59 36.76 13.48 36.76 13.48ZM 18.44 21.21C 15.55 21.05 14.61 16.77 14.61 16.77 14.61 16.77 13.48 11.72 17.53 11.67 20.69 11.33 21.77 16.19 21.77 16.19 21.77 16.19 22.92 21.21 18.44 21.21ZM 23.71 31.12C 23.62 31.26 24.1 34.56 18.69 34.76 12.89 34.66 12.77 30.98 12.77 30.64 12.74 26.81 17.91 26.62 19.24 26.58 20.39 26.72 23.67 28.63 23.71 31.12Z" fill="rgb(255,255,255)" filter="url(#filter0)"/></svg>