<svg xmlns="http://www.w3.org/2000/svg" width="47" height="48" viewBox="0 0 47 48"><filter filterUnits="objectBoundingBox" x="-2.17" y="-2.17" width="104.35" height="106.52" id="a"><feGaussianBlur in="SourceAlpha" stdDeviation=".5" result="dsBlurOut1"/><feFlood flood-color="#000" flood-opacity=".25" result="dsFloodOut1"/><feComposite in="dsFloodOut1" in2="dsBlurOut1" operator="in" result="dsShadow1"/><feOffset in="dsShadow1" dy="1" result="dsOffset1"/><feComposite in="dsOffset1" in2="SourceAlpha" operator="out" result="dropShadow1"/><feBlend in="dropShadow1" in2="SourceGraphic" result="sourceGraphic"/></filter><path d="M23.54 45.07c-12.43 0-22.5-10.07-22.5-22.5S11.11.07 23.54.07c12.42 0 22.5 10.07 22.5 22.5s-10.08 22.5-22.5 22.5zm-9.67-33.35a2.625 2.625 0 1 0 2.63 2.63c0-1.45-1.18-2.63-2.63-2.63zm2.78 6.9h-5.09v15.37h5.09V18.62zm13.08-.37c-3.12.03-4.06 1.83-4.55 2.56v-2.28h-5.15v15.4h5.15v-8.19s-.37-3.15 2.78-3.15c2.33 0 2.37 2.52 2.35 2.86 0-.16-.01-.18-.01.01 0 .05 0 .04.01-.01.01 1.05-.01 8.51-.01 8.51l5.06.01.06-8.05c0-1.46.03-7.67-5.69-7.67z" fill="#FFF" filter="url(#a)"/></svg>