<svg xmlns="http://www.w3.org/2000/svg" width="33" height="33" viewBox="0 0 33 33"><filter filterUnits="objectBoundingBox" x="-3.23" y="-3.23" width="106.45" height="109.68" id="a"><feGaussianBlur in="SourceAlpha" stdDeviation=".5" result="dsBlurOut1"/><feFlood flood-color="#000" flood-opacity=".25" result="dsFloodOut1"/><feComposite in="dsFloodOut1" in2="dsBlurOut1" operator="in" result="dsShadow1"/><feOffset in="dsShadow1" dy="1" result="dsOffset1"/><feComposite in="dsOffset1" in2="SourceAlpha" operator="out" result="dropShadow1"/><feBlend in="dropShadow1" in2="SourceGraphic" result="sourceGraphic"/></filter><path d="M16.54 30.75c-8.48 0-15.35-6.88-15.35-15.37C1.19 6.89 8.06 0 16.54 0s15.35 6.89 15.35 15.38c0 8.49-6.87 15.37-15.35 15.37zm8.16-16.89c-1.19-4.14-4.04-4.14-4.04-4.14s1.21-.69 1.18-1.1c-.37-.27-1.12.26-1.18.26.19-.13.07-.51-.17-.65-.36.04-.68.7-.68.7s-.17-.33-.33-.33c-1.91.53-3.25 4.94-3.25 4.94-6.22-4.21-6.64-3.4-6.64-3.39-.48 1.1 1.41 2.48 1.41 2.48l-.54.02s-.8-.03-.62.54c.17.73 1.12 1.48 1.13 1.49.46.22 1.04.01 1.04.01s-.61.33-1 .57c-.65.42-.18.78-.11.85.83.9 2.15.84 2.15.84s-.61.74-.62 1.02c0 .45.41.73.44.76.37.25.91.28.91.28-3.37 3.58-7.43-.02-7.43-.03.45 2.62 4.3 5.15 11.07 4.17 5.49-.88 7.24-6.9 7.24-6.9s2.27.13 2.53-1.22c-.71.13-1.74-.08-1.74-.08s1.75-.76 1.83-1.67c-1.02.8-2.55.58-2.58.58z" fill="#FFF" filter="url(#a)"/></svg>