<svg xmlns="http://www.w3.org/2000/svg" width="47" height="47" viewBox="0 0 47 47"><filter filterUnits="objectBoundingBox" x="-2.22" y="-2.22" width="104.44" height="106.67" id="a"><feGaussianBlur in="SourceAlpha" stdDeviation=".5" result="dsBlurOut1"/><feFlood flood-color="#000" flood-opacity=".25" result="dsFloodOut1"/><feComposite in="dsFloodOut1" in2="dsBlurOut1" operator="in" result="dsShadow1"/><feOffset in="dsShadow1" dy="1" result="dsOffset1"/><feComposite in="dsOffset1" in2="SourceAlpha" operator="out" result="dropShadow1"/><feBlend in="dropShadow1" in2="SourceGraphic" result="sourceGraphic"/></filter><path d="M23.5 45C11.07 45 1 34.93 1 22.5S11.07 0 23.5 0 46 10.07 46 22.5 35.93 45 23.5 45zm7.49-14.86c-3.87 1.78-6 1.17-6-1.88v-6.27H30v-4.01h-5.01v-6.02h-3.4c-.19 2.78-1.12 4.35-4.58 6.05v3.96H20v9.02c0 2.64 2.41 3.66 4.12 3.91 2.12.31 4.75-.07 6.87-.77v-3.99z" fill="#FFF" filter="url(#a)"/></svg>