<svg xmlns="http://www.w3.org/2000/svg" width="47" height="47" viewBox="0 0 47 47"><filter filterUnits="objectBoundingBox" x="-2.17" y="-2.17" width="104.35" height="106.52" id="a"><feGaussianBlur in="SourceAlpha" stdDeviation=".5" result="dsBlurOut1"/><feFlood flood-color="#000" flood-opacity=".25" result="dsFloodOut1"/><feComposite in="dsFloodOut1" in2="dsBlurOut1" operator="in" result="dsShadow1"/><feOffset in="dsShadow1" dy="1" result="dsOffset1"/><feComposite in="dsOffset1" in2="SourceAlpha" operator="out" result="dropShadow1"/><feBlend in="dropShadow1" in2="SourceGraphic" result="sourceGraphic"/></filter><path d="M23.47 44.97C11.05 44.97.97 34.9.97 22.47c0-12.42 10.08-22.5 22.5-22.5 12.43 0 22.5 10.08 22.5 22.5 0 12.43-10.07 22.5-22.5 22.5zm11.97-24.72c-1.74-6.05-5.92-6.05-5.92-6.05s1.78-1.01 1.72-1.62c-.54-.39-1.64.39-1.73.39.28-.19.12-.74-.24-.95-.53.05-.99 1.02-.99 1.02s-.26-.48-.5-.48c-2.79.77-4.76 7.22-4.75 7.23-9.13-6.16-9.73-4.98-9.73-4.96-.72 1.6 2.06 3.63 2.06 3.63l-.79.02s-1.17-.03-.92.8c.26 1.06 1.65 2.17 1.66 2.18.68.32 1.53.02 1.53.02s-.9.47-1.47.83c-.94.6-.27 1.14-.16 1.25 1.22 1.31 3.15 1.22 3.15 1.22s-.9 1.08-.9 1.49c0 .66.59 1.07.64 1.12.54.37 1.33.41 1.33.41-4.93 5.23-10.89-.03-10.89-.05.67 3.83 6.31 7.53 16.23 6.1 8.04-1.28 10.62-10.09 10.62-10.09s3.32.19 3.69-1.79c-1.04.19-2.54-.12-2.54-.12s2.56-1.11 2.68-2.44c-1.5 1.16-3.73.84-3.78.84z" fill="#FFF" filter="url(#a)"/></svg>