<?xml version="1.0" encoding="utf-8"?>
<svg xmlns="http://www.w3.org/2000/svg"
	xmlns:xlink="http://www.w3.org/1999/xlink"
	width="35px" height="31px" viewBox="0 0 35 31">
<filter filterUnits="objectBoundingBox" x="-9.68" y="-11.11" width="119.35" height="122.22" id="filter0">
<feGaussianBlur in="SourceAlpha" stdDeviation="1.50" result="dsBlurOut1"/>
<feFlood flood-color="rgb(43,25,17)" result="dsFloodOut1"/>
<feComposite in="dsFloodOut1" in2="dsBlurOut1" operator="in" result="dsShadow1"/>
<feOffset in="dsShadow1" dx="0.00" dy="0.00" result="dsOffset1"/>
<feComposite in="dsOffset1" in2="SourceAlpha" operator="out" result="dropShadow1"/>
<feBlend in="dropShadow1" in2="SourceGraphic" mode="normal" result="sourceGraphic"/>
<feFlood flood-color="rgb(137,121,109)" result="coFloodOut1"/>
<feComposite in="coFloodOut1" in2="SourceAlpha" operator="in" result="coOverlay1"/>
<feBlend in="coOverlay1" in2="sourceGraphic" mode="normal" result="colorOverlay1"/>
</filter>
<path fillRule="evenodd" d="M 32.37 27.89C 31.38 29.15 29.53 29.37 28.26 28.37 28.26 28.37 14.51 17.59 14.51 17.59 11.56 19.26 7.91 19.01 5.2 16.88 1.57 14.03 0.93 8.78 3.79 5.17 6.64 1.56 11.92 0.94 15.55 3.79 18.15 5.83 19.28 9.13 18.53 12.26 18.53 12.26 20.47 12.84 20.47 12.84 20.72 12.92 20.93 13.08 21.06 13.31 21.06 13.31 22.48 15.71 22.48 15.71 22.48 15.71 25.15 16.52 25.15 16.52 25.4 16.59 25.62 16.76 25.75 16.98 25.75 16.98 27.16 19.39 27.16 19.39 27.16 19.39 29.84 20.19 29.84 20.19 30.1 20.27 30.32 20.44 30.45 20.68 30.45 20.68 32.7 24.81 32.7 24.81 32.71 24.83 32.72 24.85 32.73 24.88 33.19 25.87 33.05 27.03 32.37 27.89ZM 30.87 25.75C 30.87 25.75 28.84 22.03 28.84 22.03 28.84 22.03 26.18 21.23 26.18 21.23 25.93 21.15 25.72 20.99 25.59 20.76 25.59 20.76 24.18 18.36 24.18 18.36 24.18 18.36 21.5 17.56 21.5 17.56 21.25 17.48 21.04 17.32 20.91 17.09 20.91 17.09 19.49 14.69 19.49 14.69 19.49 14.69 16.95 13.92 16.95 13.92 16.67 13.84 16.44 13.65 16.32 13.4 16.19 13.14 16.18 12.84 16.28 12.58 17.27 10 16.46 7.11 14.28 5.39 11.54 3.25 7.56 3.72 5.4 6.44 3.25 9.16 3.73 13.13 6.47 15.27 8.67 17 11.69 17.09 13.99 15.5 14.36 15.24 14.85 15.26 15.21 15.54 15.21 15.54 29.53 26.77 29.53 26.77 29.91 27.06 30.46 27 30.76 26.62 30.95 26.37 31 26.04 30.87 25.75ZM 7.42 11.41C 6.26 10.5 6.06 8.82 6.97 7.67 7.88 6.51 9.57 6.31 10.73 7.22 11.89 8.13 12.09 9.81 11.18 10.97 10.27 12.12 8.58 12.32 7.42 11.41ZM 9.46 8.83C 9.19 8.62 8.8 8.67 8.58 8.93 8.37 9.2 8.42 9.59 8.69 9.8 8.96 10.01 9.35 9.97 9.56 9.7 9.78 9.43 9.73 9.04 9.46 8.83Z" fill="rgb(0,0,0)" filter="url(#filter0)"/></svg>