<?xml version="1.0" encoding="utf-8"?>
<svg xmlns="http://www.w3.org/2000/svg"
	xmlns:xlink="http://www.w3.org/1999/xlink"
	width="34px" height="26px" viewBox="0 0 34 26">
<filter filterUnits="objectBoundingBox" x="-10.00" y="-13.64" width="120.00" height="127.27" id="filter0">
<feGaussianBlur in="SourceAlpha" stdDeviation="1.50" result="dsBlurOut1"/>
<feFlood flood-color="rgb(43,25,17)" result="dsFloodOut1"/>
<feComposite in="dsFloodOut1" in2="dsBlurOut1" operator="in" result="dsShadow1"/>
<feOffset in="dsShadow1" dx="0.00" dy="0.00" result="dsOffset1"/>
<feComposite in="dsOffset1" in2="SourceAlpha" operator="out" result="dropShadow1"/>
<feBlend in="dropShadow1" in2="SourceGraphic" mode="normal" result="sourceGraphic"/>
<feFlood flood-color="rgb(137,121,109)" result="coFloodOut1"/>
<feComposite in="coFloodOut1" in2="SourceAlpha" operator="in" result="coOverlay1"/>
<feBlend in="coOverlay1" in2="sourceGraphic" mode="normal" result="colorOverlay1"/>
</filter>
<path fillRule="evenodd" d="M 28.25 2C 28.25 2 5.75 2 5.75 2 3.68 2 2 3.64 2 5.67 2 5.67 2 20.33 2 20.33 2 22.36 3.68 24 5.75 24 5.75 24 28.25 24 28.25 24 30.32 24 32 22.36 32 20.33 32 20.33 32 5.67 32 5.67 32 3.64 30.32 2 28.25 2ZM 22.08 11.78C 22.08 11.78 30.02 5.13 30.02 5.13 30.07 5.3 30.12 5.48 30.12 5.67 30.12 5.67 30.12 20.33 30.12 20.33 30.12 20.46 30.08 20.57 30.05 20.69 30.05 20.69 22.08 11.78 22.08 11.78ZM 28.25 3.83C 28.37 3.83 28.48 3.88 28.6 3.9 28.6 3.9 17 13.63 17 13.63 17 13.63 5.4 3.9 5.4 3.9 5.52 3.88 5.63 3.83 5.75 3.83 5.75 3.83 28.25 3.83 28.25 3.83ZM 3.95 20.69C 3.92 20.57 3.87 20.46 3.87 20.33 3.87 20.33 3.87 5.67 3.87 5.67 3.87 5.48 3.93 5.3 3.99 5.13 3.99 5.13 11.92 11.78 11.92 11.78 11.92 11.78 3.95 20.69 3.95 20.69ZM 5.75 22.17C 5.56 22.17 5.39 22.11 5.22 22.06 5.22 22.06 13.35 12.98 13.35 12.98 13.35 12.98 16.39 15.53 16.39 15.53 16.57 15.68 16.78 15.75 17 15.75 17.22 15.75 17.43 15.68 17.61 15.53 17.61 15.53 20.65 12.98 20.65 12.98 20.65 12.98 28.78 22.06 28.78 22.06 28.61 22.11 28.44 22.17 28.25 22.17 28.25 22.17 5.75 22.17 5.75 22.17Z" fill="rgb(0,0,0)" filter="url(#filter0)"/></svg>