<?xml version="1.0" encoding="utf-8"?>
<svg xmlns="http://www.w3.org/2000/svg"
	xmlns:xlink="http://www.w3.org/1999/xlink"
	width="34px" height="34px" viewBox="0 0 34 34">
<filter filterUnits="objectBoundingBox" x="-10.00" y="-10.00" width="120.00" height="120.00" id="filter0">
<feGaussianBlur in="SourceAlpha" stdDeviation="1.50" result="dsBlurOut1"/>
<feFlood flood-color="rgb(43,25,17)" result="dsFloodOut1"/>
<feComposite in="dsFloodOut1" in2="dsBlurOut1" operator="in" result="dsShadow1"/>
<feOffset in="dsShadow1" dx="0.00" dy="0.00" result="dsOffset1"/>
<feComposite in="dsOffset1" in2="SourceAlpha" operator="out" result="dropShadow1"/>
<feBlend in="dropShadow1" in2="SourceGraphic" mode="normal" result="sourceGraphic"/>
<feFlood flood-color="rgb(137,121,109)" result="coFloodOut1"/>
<feComposite in="coFloodOut1" in2="SourceAlpha" operator="in" result="coOverlay1"/>
<feBlend in="coOverlay1" in2="sourceGraphic" mode="normal" result="colorOverlay1"/>
</filter>
<path fillRule="evenodd" d="M 32 29.91C 32 29.91 32 28.31 32 28.31 32 26.69 31.2 25.12 29.87 24.13 26.77 21.84 23.61 20.24 22.51 19.7 22.51 19.7 22.51 17.88 22.51 17.88 22.73 17.4 22.92 16.88 23.06 16.32 23.88 16.03 24.33 14.88 24.64 13.86 25.04 12.51 25 11.55 24.52 11.03 25.02 8.42 24.8 6.5 23.86 5.31 23.36 4.69 22.78 4.43 22.4 4.31 22.12 3.95 21.56 3.33 20.62 2.83 19.64 2.28 18.54 2 17.33 2 17.11 2 16.89 2.01 16.7 2.02 16.16 2.05 15.63 2.15 15.1 2.31 15.09 2.31 15.09 2.32 15.08 2.32 14.5 2.51 13.94 2.79 13.39 3.14 12.77 3.52 12.19 3.98 11.7 4.48 10.73 5.43 10.08 6.5 9.81 7.65 9.54 8.6 9.52 9.56 9.74 10.5 9.63 10.58 9.52 10.67 9.43 10.78 8.99 11.34 8.97 12.22 9.36 13.55 9.63 14.47 9.99 15.41 10.6 15.83 10.78 16.71 11.09 17.52 11.49 18.23 11.49 18.23 11.49 19.71 11.49 19.71 10.39 20.24 7.23 21.84 4.13 24.14 2.8 25.13 2 26.69 2 28.32 2 28.32 2 29.91 2 29.91 2 31.07 2.98 32 4.19 32 4.19 32 29.81 32 29.81 32 31.02 32 32 31.06 32 29.91ZM 3.57 29.91C 3.57 29.91 3.57 28.31 3.57 28.31 3.57 27.15 4.13 26.03 5.09 25.32 8.43 22.85 11.83 21.22 12.48 20.92 12.84 20.75 13.07 20.41 13.07 20.02 13.07 20.02 13.07 18.03 13.07 18.03 13.07 17.89 13.03 17.76 12.96 17.65 12.53 16.96 12.24 16.14 12.09 15.2 12.04 14.9 11.81 14.66 11.5 14.59 11.42 14.49 11.18 14.16 10.88 13.14 10.63 12.29 10.65 11.9 10.68 11.76 10.93 11.77 11.18 11.66 11.34 11.47 11.5 11.27 11.55 11 11.46 10.76 11.13 9.87 11.09 8.95 11.34 8.02 11.56 7.12 12.06 6.29 12.84 5.53 13.26 5.1 13.74 4.72 14.26 4.41 14.26 4.41 14.28 4.4 14.28 4.39 14.71 4.1 15.16 3.89 15.61 3.74 15.61 3.74 15.62 3.74 15.62 3.74 16 3.61 16.39 3.55 16.8 3.53 17.93 3.44 18.94 3.64 19.83 4.14 20.81 4.65 21.21 5.33 21.21 5.33 21.33 5.57 21.55 5.71 21.83 5.72 21.85 5.72 22.27 5.79 22.63 6.27 23.01 6.79 23.55 8.11 22.87 11.2 22.8 11.55 22.98 11.89 23.31 12.04 23.34 12.15 23.4 12.52 23.12 13.46 22.87 14.28 22.68 14.65 22.56 14.82 22.41 14.79 22.26 14.81 22.12 14.87 21.87 14.97 21.69 15.18 21.65 15.43 21.51 16.16 21.29 16.83 21.01 17.39 20.96 17.49 20.93 17.6 20.93 17.71 20.93 17.71 20.93 20.02 20.93 20.02 20.93 20.41 21.16 20.75 21.52 20.92 22.17 21.22 25.57 22.86 28.91 25.32 29.86 26.03 30.42 27.15 30.42 28.31 30.42 28.31 30.42 29.91 30.42 29.91 30.42 30.23 30.15 30.49 29.81 30.49 29.81 30.49 4.19 30.49 4.19 30.49 3.85 30.5 3.57 30.23 3.57 29.91Z" fill="rgb(0,0,0)" filter="url(#filter0)"/></svg>